<svg xmlns="http://www.w3.org/2000/svg" xmlns:xlink="http://www.w3.org/1999/xlink" viewBox="0 0 60.74 46.73"><defs><style>.cls-1{opacity:0.75;}.cls-2{fill:url(#未命名的渐变_128);}.cls-3{fill:url(#未命名的渐变_142);}</style><linearGradient id="未命名的渐变_128" x1="30.37" y1="46.73" x2="30.37" gradientUnits="userSpaceOnUse"><stop offset="0" stop-color="#5a9fe5"/><stop offset="0.23" stop-color="#60a3e7"/><stop offset="0.53" stop-color="#71afee"/><stop offset="0.87" stop-color="#8cc2fa"/><stop offset="1" stop-color="#99cbff"/></linearGradient><linearGradient id="未命名的渐变_142" x1="30.85" y1="18.88" x2="30.85" y2="6.45" gradientUnits="userSpaceOnUse"><stop offset="0" stop-color="#9486d6"/><stop offset="1" stop-color="#d3c6ff"/></linearGradient></defs><g id="图层_2" data-name="图层 2"><g id="图层_1-2" data-name="图层 1"><g class="cls-1"><path class="cls-2" d="M54.55,0c1.7.2,2.94,1.58,3.88,3.62a29.9,29.9,0,0,1,2.31,12.47,30.4,30.4,0,0,1-55,18.06A30.68,30.68,0,0,1,0,15.75C.09,10.72,1.05.86,7.4.21A7,7,0,0,1,13,2.74c4.42,4.76,6.78,11.54,12.11,15.72a9.38,9.38,0,0,0,6.2,1.93c4-.56,7.25-3.36,9.71-6.51S45.28,7.13,47.79,4A12,12,0,0,1,51.41.77,5.36,5.36,0,0,1,54.55,0Z"/><path class="cls-3" d="M37.06,12.67a6.21,6.21,0,1,1-6.21-6.22A6.21,6.21,0,0,1,37.06,12.67Z"/></g></g></g></svg>